<svg width="200" height="200" viewBox="0 0 200 200" fill="none" xmlns="http://www.w3.org/2000/svg">
<path fill-rule="evenodd" clip-rule="evenodd" d="M50 0H0V100H50C22.3858 100 0 122.386 0 150V200H100V150C100 177.614 122.386 200 150 200H200V100H150C177.614 100 200 77.6142 200 50V0H100V50C100 22.3858 77.6142 0 50 0ZM100 100H50C77.6142 100 100 122.386 100 150V100ZM100 100V50C100 77.6142 122.386 100 150 100H100Z" fill="#8A1414"/>
<path d="M28.5345 72L44.9185 27.2H54.1345L70.5185 72H61.8145L58.2305 61.632H40.7585L37.1105 72H28.5345ZM42.9985 55.232H55.9905L49.4625 36.608L42.9985 55.232Z" fill="white"/>
<path d="M151.546 172.768C147.024 172.768 143.141 171.808 139.898 169.888C136.656 167.925 134.16 165.216 132.41 161.76C130.661 158.261 129.786 154.229 129.786 149.664C129.786 145.099 130.661 141.067 132.41 137.568C134.16 134.069 136.656 131.339 139.898 129.376C143.141 127.413 147.024 126.432 151.546 126.432C156.922 126.432 161.317 127.776 164.73 130.464C168.186 133.109 170.341 136.843 171.194 141.664H162.17C161.616 139.232 160.421 137.333 158.586 135.968C156.794 134.56 154.405 133.856 151.418 133.856C147.28 133.856 144.037 135.264 141.69 138.08C139.344 140.896 138.17 144.757 138.17 149.664C138.17 154.571 139.344 158.432 141.69 161.248C144.037 164.021 147.28 165.408 151.418 165.408C154.405 165.408 156.794 164.768 158.586 163.488C160.421 162.165 161.616 160.352 162.17 158.048H171.194C170.341 162.656 168.186 166.261 164.73 168.864C161.317 171.467 156.922 172.768 151.546 172.768Z" fill="white"/>
</svg>
